<?xml version="1.0" encoding="UTF-8" standalone="no"?>
<svg
   width="16px"
   height="16px"
   viewBox="0 0 16 16"
   version="1.1"
   id="svg21"
   sodipodi:docname="icon.svg"
   inkscape:version="1.1 (c68e22c387, 2021-05-23)"
   xmlns:inkscape="http://www.inkscape.org/namespaces/inkscape"
   xmlns:sodipodi="http://sodipodi.sourceforge.net/DTD/sodipodi-0.dtd"
   xmlns:xlink="http://www.w3.org/1999/xlink"
   xmlns="http://www.w3.org/2000/svg"
   xmlns:svg="http://www.w3.org/2000/svg">
  <defs
     id="defs25">
    <symbol
       id="symbol4819">
      <rect
         style="opacity:1;fill:none;stroke:#ffffff;stroke-width:0.890986;stroke-opacity:1"
         id="rect3245"
         width="4.2414174"
         height="1.6252717"
         x="6.6287837"
         y="5.1144533"
         ry="0" />
    </symbol>
    <symbol
       id="symbol4824">
      <use
         xlink:href="#symbol4819"
         id="use4822" />
    </symbol>
  </defs>
  <sodipodi:namedview
     id="namedview23"
     pagecolor="#ffffff"
     bordercolor="#666666"
     borderopacity="1.0"
     inkscape:pageshadow="2"
     inkscape:pageopacity="0.0"
     inkscape:pagecheckerboard="true"
     showgrid="false"
     inkscape:zoom="25.0625"
     inkscape:cx="12.588529"
     inkscape:cy="1.8753117"
     inkscape:window-width="1920"
     inkscape:window-height="1010"
     inkscape:window-x="-7"
     inkscape:window-y="-7"
     inkscape:window-maximized="1"
     inkscape:current-layer="svg21" />
  <g
     id="Style"
     stroke="none"
     stroke-width="1"
     fill="none"
     fill-rule="evenodd">
    <g
       id="*UI-icons"
       transform="translate(-100.000000, -515.000000)"
       fill="#FFF"
       fill-rule="nonzero">
      <path
         id="widget-demo"
         transform="translate(100,515)"
         d="M 2,0 C 0.895431,0 0,0.895431 0,2 v 12 c 0,1.104569 0.895431,2 2,2 h 12 c 1.104569,0 2,-0.895431 2,-2 V 2 C 16,0.895431 15.104569,0 14,0 Z m 0,1 h 12 c 0.552285,0 1,0.447715 1,1 v 12 c 0,0.552285 -0.447715,1 -1,1 H 2 C 1.447715,15 1,14.552285 1,14 V 2 C 1,1.447715 1.447715,1 2,1 Z m 8.960938,9 c -0.04459,0.0099 -0.06408,0.01616 -0.09961,0.02539 0.0073,0.01591 0.02405,0.05297 0.03125,0.06836 l 0.01172,-0.0039 c 0.01859,-0.03021 0.03884,-0.05911 0.05664,-0.08984 z" />
    </g>
  </g>
  <rect
     style="opacity:1;fill:none;stroke:#ffffff;stroke-width:0.808;stroke-miterlimit:4;stroke-dasharray:none;stroke-opacity:1"
     id="rect4889"
     width="5.9979377"
     height="3.4827769"
     x="6.6775641"
     y="3.0865417" />
</svg>
